<?xml version="1.0" standalone="no"?><!DOCTYPE svg PUBLIC "-//W3C//DTD SVG 1.1//EN" "http://www.w3.org/Graphics/SVG/1.1/DTD/svg11.dtd"><svg t="1622441133597" class="icon" viewBox="0 0 1044 1024" version="1.1" xmlns="http://www.w3.org/2000/svg" p-id="2777" xmlns:xlink="http://www.w3.org/1999/xlink" width="203.90625" height="200"><defs><style type="text/css"></style></defs><path d="M42.816183 230.044421h75.608924v606.356349A187.351737 187.351737 0 0 0 305.653098 1024h433.111678a187.351737 187.351737 0 0 0 187.227991-187.227991v-606.356349h75.608924a42.816183 42.816183 0 1 0 0-85.632366H709.436928V114.960461A115.207706 115.207706 0 0 0 593.98173 0.000247H450.064906a115.207706 115.207706 0 0 0-115.08396 114.960214v29.451594H42.816183a42.816183 42.816183 0 0 0 0 85.632366zM420.737058 144.412055V114.960461a29.451594 29.451594 0 0 1 29.451595-29.327847H593.98173a29.451594 29.451594 0 0 1 29.699086 29.327847v29.451594z m-216.432092 692.978685v-606.356349H840.236655v606.356349a101.595625 101.595625 0 0 1-101.471879 101.595625h-433.111678a101.595625 101.595625 0 0 1-101.471878-102.214356z" fill="#4D4D4D" p-id="2778"></path><path d="M522.208937 807.444161a42.816183 42.816183 0 0 0 42.816183-42.816183v-408.362439a42.816183 42.816183 0 1 0-85.632366 0v408.362439a42.816183 42.816183 0 0 0 42.816183 42.816183zM329.65986 759.306892a42.939929 42.939929 0 0 0 42.939929-42.816183V403.784077a42.939929 42.939929 0 0 0-85.756112 0V716.490709a42.939929 42.939929 0 0 0 42.816183 42.816183zM690.627507 759.306892a42.816183 42.816183 0 0 0 42.816183-42.816183V403.784077a42.816183 42.816183 0 0 0-85.632366 0V716.490709a42.816183 42.816183 0 0 0 42.816183 42.816183z" fill="#4D4D4D" p-id="2779"></path></svg>