<?xml version="1.0" standalone="no"?><!DOCTYPE svg PUBLIC "-//W3C//DTD SVG 1.1//EN" "http://www.w3.org/Graphics/SVG/1.1/DTD/svg11.dtd"><svg t="1622441099424" class="icon" viewBox="0 0 1024 1024" version="1.1" xmlns="http://www.w3.org/2000/svg" p-id="2480" xmlns:xlink="http://www.w3.org/1999/xlink" width="200" height="200"><defs><style type="text/css"></style></defs><path d="M864 277.333333H832v576a85.333333 85.333333 0 0 1-85.333333 85.333334H277.333333a85.333333 85.333333 0 0 1-85.333333-85.333334V277.333333H160a32 32 0 0 1 0-64h704a32 32 0 0 1 0 64zM768 277.333333H256v576a21.333333 21.333333 0 0 0 21.333333 21.333334h469.333334a21.333333 21.333333 0 0 0 21.333333-21.333334V277.333333z m-160-128h-192a32 32 0 0 1 0-64h192a32 32 0 0 1 0 64z" fill="#333333" p-id="2481"></path><path d="M608 746.666667a32 32 0 0 1-32-32v-277.333334a32 32 0 0 1 64 0v277.333334a32 32 0 0 1-32 32z m-192 0a32 32 0 0 1-32-32v-277.333334a32 32 0 0 1 64 0v277.333334a32 32 0 0 1-32 32z" fill="#FF9C00" p-id="2482"></path></svg>